<svg width="30" height="44" viewBox="0 0 30 44" fill="none" xmlns="http://www.w3.org/2000/svg">
<g clip-path="url(#clip0_43_111)" filter="url(#filter0_d_43_111)">
<path d="M15.0215 2.93302C18.1472 6.9011 19.8158 11.7944 19.7553 16.8155V18.0141L20.7865 18.6416C22.119 19.4482 23.1127 20.6993 23.5866 22.1669C23.1705 21.8605 22.7352 21.5803 22.2833 21.3278L19.5333 19.7838L19.0391 22.9001C18.9963 23.1755 18.9389 23.4485 18.8672 23.718H11.1615C11.0469 23.3655 10.9538 23.0129 10.8679 22.6463L10.2448 19.8261L7.70968 21.2362C7.28615 21.473 6.87723 21.7344 6.48507 22.0188C6.96824 20.5682 7.94123 19.3242 9.24224 18.4935L10.2234 17.866V16.7521C10.2411 11.7513 11.9297 6.89523 15.0287 2.93302H15.0215ZM15.0287 0C14.868 0.000390307 14.7128 0.0579856 14.5918 0.162162L14.5274 0.218566C10.3978 4.76564 8.10466 10.6454 8.08208 16.745C6.32967 17.8643 5.03251 19.5543 4.41726 21.5197C3.80202 23.485 3.90783 25.6007 4.71619 27.4971C5.56776 25.6455 6.99131 24.1058 8.7839 23.0975C8.96368 23.8642 9.2031 24.6161 9.50005 25.3467C9.53771 25.4871 9.62118 25.6114 9.73763 25.7006C9.85408 25.7898 9.99706 25.8388 10.1446 25.8402H20.0847C20.2852 25.8402 20.4857 25.6498 20.586 25.3537C20.8758 24.6592 21.0778 23.9322 21.1875 23.1892C22.9836 24.1932 24.4083 25.7342 25.2553 27.5887C26.1124 25.7017 26.2451 23.5727 25.6287 21.5967C25.0124 19.6206 23.6888 17.9319 21.9037 16.8437C21.9745 10.7082 19.6935 4.77179 15.5157 0.218566C15.4535 0.150085 15.3773 0.0952397 15.2922 0.0575871C15.2071 0.0199344 15.1149 0.000314749 15.0215 0L15.0287 0Z" fill="#4EA8DE"/>
<path d="M15.0216 16.1598C14.4715 16.1598 13.9338 15.9995 13.4761 15.699C13.0185 15.3986 12.6614 14.9715 12.4499 14.4716C12.2385 13.9716 12.1821 13.4213 12.2878 12.8898C12.3936 12.3584 12.6568 11.8697 13.0442 11.4853C13.4317 11.1009 13.9261 10.838 14.465 10.7298C15.004 10.6216 15.5634 10.6729 16.0728 10.8773C16.5822 11.0816 17.0188 11.4298 17.3275 11.8781C17.6361 12.3263 17.8031 12.8545 17.8074 13.396C17.8159 13.7469 17.7542 14.0961 17.6256 14.4235C17.4971 14.751 17.3043 15.0503 17.0582 15.3043C16.8121 15.5583 16.5176 15.7622 16.1915 15.9041C15.8654 16.0461 15.5141 16.1234 15.1576 16.1316C15.1126 16.1387 15.0666 16.1387 15.0216 16.1316V16.1598Z" fill="#4EA8DE"/>
<path d="M18.8959 27.5958C18.7167 27.5901 18.5382 27.6198 18.3708 27.683C18.2034 27.7462 18.0505 27.8416 17.9211 27.9638C17.7917 28.086 17.6884 28.2323 17.6172 28.3943C17.546 28.5563 17.5084 28.7307 17.5066 28.9072V33.067C17.5066 33.4297 17.653 33.7776 17.9135 34.0342C18.1741 34.2907 18.5274 34.4348 18.8959 34.4348C19.2644 34.4348 19.6178 34.2907 19.8783 34.0342C20.1389 33.7776 20.2852 33.4297 20.2852 33.067V28.9636C20.291 28.7877 20.2611 28.6126 20.1973 28.4482C20.1336 28.2839 20.0372 28.1337 19.9139 28.0064C19.7906 27.879 19.6428 27.7772 19.4791 27.7067C19.3154 27.6362 19.139 27.5985 18.9604 27.5958H18.8959Z" fill="#5E60CE"/>
<path d="M11.1615 27.5958C10.9793 27.5863 10.797 27.613 10.6255 27.6743C10.4539 27.7356 10.2967 27.8302 10.163 27.9526C10.0294 28.0749 9.92213 28.2225 9.84761 28.3865C9.77309 28.5505 9.73284 28.7275 9.72925 28.9072V33.067C9.72925 33.4297 9.87562 33.7777 10.1362 34.0342C10.3967 34.2907 10.7501 34.4348 11.1186 34.4348C11.487 34.4348 11.8404 34.2907 12.101 34.0342C12.3615 33.7777 12.5079 33.4297 12.5079 33.067V28.9636C12.5136 28.7877 12.4837 28.6126 12.42 28.4482C12.3562 28.2839 12.2599 28.1337 12.1366 28.0064C12.0133 27.879 11.8654 27.7772 11.7017 27.7067C11.538 27.6362 11.3617 27.5985 11.183 27.5958H11.1615Z" fill="#5E60CE"/>
<path d="M14.9213 27.5958C14.7426 27.592 14.5649 27.623 14.3984 27.6869C14.2318 27.7507 14.0797 27.8463 13.9507 27.9681C13.8217 28.0899 13.7183 28.2355 13.6464 28.3966C13.5746 28.5577 13.5357 28.7312 13.532 28.9072V34.6392C13.532 35.002 13.6784 35.3499 13.9389 35.6064C14.1995 35.8629 14.5528 36.007 14.9213 36.007C15.2898 36.007 15.6432 35.8629 15.9037 35.6064C16.1643 35.3499 16.3106 35.002 16.3106 34.6392V28.9988C16.3164 28.823 16.2865 28.6478 16.2227 28.4835C16.159 28.3191 16.0626 28.1689 15.9393 28.0416C15.816 27.9143 15.6682 27.8124 15.5045 27.7419C15.3408 27.6714 15.1644 27.6337 14.9858 27.631L14.9213 27.5958Z" fill="#5E60CE"/>
</g>
<defs>
<filter id="filter0_d_43_111" x="0" y="0" width="30" height="44" filterUnits="userSpaceOnUse" color-interpolation-filters="sRGB">
<feFlood flood-opacity="0" result="BackgroundImageFix"/>
<feColorMatrix in="SourceAlpha" type="matrix" values="0 0 0 0 0 0 0 0 0 0 0 0 0 0 0 0 0 0 127 0" result="hardAlpha"/>
<feOffset dy="4"/>
<feGaussianBlur stdDeviation="2"/>
<feComposite in2="hardAlpha" operator="out"/>
<feColorMatrix type="matrix" values="0 0 0 0 0 0 0 0 0 0 0 0 0 0 0 0 0 0 0.25 0"/>
<feBlend mode="normal" in2="BackgroundImageFix" result="effect1_dropShadow_43_111"/>
<feBlend mode="normal" in="SourceGraphic" in2="effect1_dropShadow_43_111" result="shape"/>
</filter>
<clipPath id="clip0_43_111">
<rect width="22" height="36" fill="white" transform="translate(4)"/>
</clipPath>
</defs>
</svg>
